<svg viewBox="0 0 24 24" xmlns="http://www.w3.org/2000/svg">
  <!-- Base of the lamp -->
  <path d="M5 16C5 16 5 18 8 18C11 18 16 18 16 18C16 18 19 18 19 16" stroke="#E0E0E0" stroke-width="1.5" stroke-linecap="round" fill="none"/>
  
  <!-- Lamp body -->
  <path d="M8 18C8 18 7 13 9 11C11 9 13 9 15 11C17 13 16 18 16 18" stroke="#E0E0E0" stroke-width="1.5" stroke-linecap="round" fill="none"/>
  
  <!-- Spout of the lamp -->
  <path d="M14 11C14 11 16 10 18 7C20 4 19 3 19 3" stroke="#E0E0E0" stroke-width="1.5" stroke-linecap="round" fill="none"/>
  
  <!-- Smoke/magic coming out -->
  <path d="M19 3C19 3 18 2 16.5 3C15 4 15 7 16 8" stroke="#A0A0A0" stroke-width="1" stroke-linecap="round" opacity="0.8" fill="none"/>
  <path d="M19 3C19 3 20 2 20 1" stroke="#A0A0A0" stroke-width="1" stroke-linecap="round" opacity="0.8" fill="none"/>
  
  <!-- Code symbols in lamp body -->
  <path d="M10 13L9 14L10 15" stroke="#FFCC66" stroke-width="1.5" stroke-linecap="round" stroke-linejoin="round"/>
  <path d="M14 13L15 14L14 15" stroke="#FFCC66" stroke-width="1.5" stroke-linecap="round" stroke-linejoin="round"/>
  <path d="M11.5 12.5L12.5 15.5" stroke="#FFCC66" stroke-width="1.5" stroke-linecap="round" stroke-linejoin="round"/>
</svg>